<svg xmlns="http://www.w3.org/2000/svg" width="900" height="1200" viewBox="0 0 900 1200">
  <defs>
    <pattern id="cemento" width="16" height="16" patternUnits="userSpaceOnUse">
      <rect width="16" height="16" fill="#dedede"/>
      <circle cx="4" cy="5" r="1.2" fill="#999"/>
      <circle cx="12" cy="11" r="1" fill="#aaa"/>
    </pattern>
    <pattern id="grava" width="28" height="28" patternUnits="userSpaceOnUse">
      <rect width="28" height="28" fill="#f4dfad"/>
      <circle cx="7" cy="8" r="5" fill="none" stroke="#6f6045" stroke-width="1.5"/>
      <circle cx="20" cy="7" r="6" fill="none" stroke="#6f6045" stroke-width="1.5"/>
      <circle cx="13" cy="21" r="6" fill="none" stroke="#6f6045" stroke-width="1.5"/>
      <circle cx="27" cy="21" r="5" fill="none" stroke="#6f6045" stroke-width="1.5"/>
    </pattern>
    <pattern id="filtro" width="16" height="18" patternUnits="userSpaceOnUse">
      <rect width="16" height="18" fill="#f8f8f8"/>
      <line x1="1" y1="5" x2="15" y2="5" stroke="#333" stroke-width="2"/>
      <line x1="1" y1="13" x2="15" y2="13" stroke="#333" stroke-width="2"/>
    </pattern>
    <marker id="flecha" viewBox="0 0 10 10" refX="9" refY="5" markerWidth="7" markerHeight="7" orient="auto-start-reverse">
      <path d="M 0 0 L 10 5 L 0 10 z" fill="#222"/>
    </marker>
    <style>
      .titulo { font: 700 31px Arial, sans-serif; fill: #111; }
      .etiqueta { font: 600 22px Arial, sans-serif; fill: #222; }
      .nivel { font: 700 24px Arial, sans-serif; fill: #111; }
      .linea { stroke: #222; stroke-width: 3; fill: none; }
      .guia { stroke: #222; stroke-width: 2.5; fill: none; marker-end: url(#flecha); }
    </style>
  </defs>

  <rect width="900" height="1200" fill="white"/>
  <text x="450" y="58" text-anchor="middle" class="titulo">PERFIL CONSTRUCTIVO DE LA PERFORACIÓN</text>

  <!-- Nivel de terreno -->
  <line x1="105" y1="115" x2="535" y2="115" class="linea"/>
  <path d="M115 115 l14 16 m12 -16 l14 16 m12 -16 l14 16 m12 -16 l14 16 m12 -16 l14 16 m12 -16 l14 16 m12 -16 l14 16 m12 -16 l14 16 m12 -16 l14 16 m12 -16 l14 16 m12 -16 l14 16" stroke="#222" stroke-width="2" fill="none"/>

  <!-- Escala -->
  <line x1="100" y1="115" x2="100" y2="1055" class="linea"/>
  <line x1="80" y1="115" x2="120" y2="115" class="linea"/>
  <line x1="80" y1="785" x2="120" y2="785" class="linea"/>
  <line x1="80" y1="1055" x2="120" y2="1055" class="linea"/>
  <text x="67" y="123" text-anchor="end" class="nivel">0 m</text>
  <text x="67" y="793" text-anchor="end" class="nivel">30 m</text>
  <text x="67" y="1063" text-anchor="end" class="nivel">42 m</text>

  <!-- Pared exterior y rellenos -->
  <rect x="220" y="115" width="180" height="670" fill="url(#cemento)" stroke="#222" stroke-width="3"/>
  <rect x="220" y="785" width="180" height="270" fill="url(#grava)" stroke="#222" stroke-width="3"/>

  <!-- Cańería y filtro -->
  <rect x="275" y="115" width="70" height="670" fill="#fff" stroke="#222" stroke-width="4"/>
  <rect x="275" y="785" width="70" height="270" fill="url(#filtro)" stroke="#222" stroke-width="4"/>

  <!-- Etiquetas -->
  <text x="505" y="280" class="etiqueta">
    <tspan x="505" dy="0">Cańería de PVC Ř 115 mm,</tspan>
    <tspan x="505" dy="31">clase 6  Tubo Pocero</tspan>
  </text>
  <path d="M495 290 L350 335" class="guia"/>

  <text x="505" y="505" class="etiqueta">Cemento</text>
  <path d="M495 498 L365 550" class="guia"/>

  <text x="505" y="855" class="etiqueta">
    <tspan x="505" dy="0">Filtro continuo galvanizado</tspan>
    <tspan x="505" dy="31">de 4 pulgadas</tspan>
  </text>
  <path d="M495 865 L347 900" class="guia"/>

  <text x="505" y="980" class="etiqueta">Grava seleccionada</text>
  <path d="M495 972 L385 990" class="guia"/>

  <text x="310" y="1125" text-anchor="middle" class="titulo">Profundidad total: 42 m</text>
</svg>
